<?xml version="1.0" encoding="UTF-8" standalone="no"?>
<svg
   xmlns:dc="http://purl.org/dc/elements/1.1/"
   xmlns:cc="http://creativecommons.org/ns#"
   xmlns:rdf="http://www.w3.org/1999/02/22-rdf-syntax-ns#"
   xmlns:svg="http://www.w3.org/2000/svg"
   xmlns="http://www.w3.org/2000/svg"
   viewBox="0 0 4000 4000"
   height="4000"
   width="4000"
   xml:space="preserve"
   id="svg2"
   version="1.1"><metadata
     id="metadata8"><rdf:RDF><cc:Work
         rdf:about=""><dc:format>image/svg+xml</dc:format><dc:type
           rdf:resource="http://purl.org/dc/dcmitype/StillImage" /></cc:Work></rdf:RDF></metadata><defs
     id="defs6" /><g
     transform="matrix(1.3333333,0,0,-1.3333333,0,4000)"
     id="g10"><g
       transform="scale(0.1)"
       id="g12"><g
         transform="scale(1.84049)"
         id="g14"><path
           id="path16"
           style="fill:#ffffff;fill-opacity:1;fill-rule:evenodd;stroke:none"
           d="M 0,16300 H 16300 V 0 H 0 v 16300" /></g><g
         transform="scale(1.52109)"
         id="g18"><path
           id="path20"
           style="fill:#333333;fill-opacity:1;fill-rule:evenodd;stroke:none"
           d="m 3697.6,4662.04 v 1137.22 h 354.79 c 162.13,0 296.03,-51.74 399.4,-157.46 101.05,-105.71 152.73,-241.99 152.73,-411.15 0,-169.22 -51.68,-305.44 -152.73,-411.15 -100.99,-105.78 -234.95,-157.46 -399.4,-157.46 z m 2275.84,-35.23 c -171.53,0 -307.79,56.41 -413.53,166.79 -105.73,110.44 -157.41,256.13 -157.41,437.05 0,180.92 51.68,326.61 157.41,437.06 105.72,110.38 242,166.78 413.53,166.78 169.16,0 305.42,-56.4 411.19,-166.78 105.7,-110.45 157.41,-256.14 157.41,-437.06 0,-180.92 -51.71,-326.54 -157.41,-437.05 -105.75,-110.38 -242.03,-166.79 -411.19,-166.79 z m 0,-253.77 c 251.42,0 455.8,79.88 613.21,237.33 155.09,157.39 232.66,364.15 232.66,620.22 0,256.13 -77.57,462.89 -232.66,620.27 -157.39,157.45 -361.79,237.33 -613.21,237.33 -253.79,0 -458.16,-77.51 -613.25,-234.96 -157.43,-157.45 -234.96,-366.51 -234.96,-622.64 0,-256.07 77.53,-462.83 234.96,-620.22 155.06,-157.45 359.46,-237.33 613.25,-237.33 z m 1895.18,728.36 h 460.53 v -338.37 c -115.12,-89.22 -253.77,-133.92 -415.89,-133.92 -176.19,0 -314.84,54.11 -418.25,164.49 -105.71,108.08 -157.39,253.76 -157.39,437.05 0,178.56 54.04,324.24 164.49,434.69 110.38,110.38 251.4,166.79 427.59,166.79 159.75,0 326.61,-65.81 437.05,-176.19 l 176.19,176.19 c -164.49,169.15 -368.88,253.76 -610.87,253.76 -256.07,0 -465.2,-79.87 -627.32,-237.33 -162.12,-159.75 -241.99,-366.51 -241.99,-617.91 0,-258.43 77.5,-465.19 232.59,-620.28 155.09,-157.45 361.85,-234.96 617.91,-234.96 265.53,0 488.73,89.28 669.65,270.2 v 697.79 h -714.29 v -242 z M 9991.7,4615.04 c -159.68,0 -274.87,86.98 -274.87,202.09 0,115.12 84.62,230.23 232.6,312.48 l 399.47,-383.02 c -112.8,-86.91 -232.6,-131.55 -357.13,-131.55 z m 98.7,1235.89 c 115.1,0 187.9,-68.18 187.9,-169.22 0,-103.35 -65.7,-180.86 -246.6,-286.64 -131.58,131.62 -164.51,185.66 -164.51,267.9 0,110.38 91.64,187.96 223.21,187.96 z m 589.8,-1087.9 c 82.2,124.58 136.2,267.89 157.4,430.02 l -227.9,49.37 c -11.8,-105.78 -47.1,-209.13 -105.7,-305.44 l -314.9,303.07 c 230.3,133.92 345.4,284.27 345.4,453.43 0,115.11 -40,209.12 -119.9,281.96 -82.2,72.85 -185.6,108.02 -312.4,108.02 -143.37,0 -260.85,-39.91 -352.43,-117.42 -91.64,-77.57 -138.65,-178.55 -138.65,-298.4 0,-124.52 61.14,-253.77 180.92,-382.95 -230.23,-129.25 -345.41,-293.74 -345.41,-491.09 0,-119.79 49.38,-218.53 150.42,-296.04 100.98,-77.51 230.23,-117.48 387.68,-117.48 206.77,0 385.37,68.17 533.27,204.46 l 202.1,-195.06 169.2,171.52 -209.1,202.09 z m 1815.3,-387.62 c 249,0 455.7,82.18 622.6,244.3 L 12941.9,4803 c -119.9,-117.48 -267.8,-176.19 -439.4,-176.19 -176.2,0 -317.2,56.41 -427.6,169.15 -110.4,110.38 -164.5,256.13 -164.5,434.69 0,178.56 54,324.24 164.5,437.06 110.4,110.38 251.4,166.78 427.6,166.78 166.8,0 305.4,-56.4 420.6,-171.52 l 183.2,169.16 c -166.8,169.15 -371.2,253.76 -613.2,253.76 -251.4,0 -458.1,-79.87 -617.9,-239.63 -162.2,-159.82 -242,-364.21 -242,-615.61 0,-251.4 79.8,-458.16 239.6,-615.61 159.8,-159.76 366.5,-239.63 622.6,-239.63 z m 1963.3,622.58 h -671.9 l 335.9,777.73 z m 554.5,-589.71 -735.4,1644.67 h -305.4 l -737.8,-1644.67 h 296 l 150.4,340.68 h 883.4 l 150.4,-340.68 h 298.4 z m -54.9,1644.67 v -253.76 h 533.4 V 4408.28 h 274.8 v 1390.91 h 533.4 v 253.76 h -1341.6 z m -11535.7,0 V 4408.28 h 629.66 c 246.7,0 448.75,75.14 601.5,227.86 152.72,150.42 227.91,347.78 227.91,594.45 0,246.72 -75.19,444.08 -227.91,596.8 -152.72,150.35 -354.8,225.56 -601.5,225.56 H 3422.7 v 0" /></g><g
         transform="scale(1.32224)"
         id="g22"><path
           id="path24"
           style="fill:#333333;fill-opacity:1;fill-rule:evenodd;stroke:none"
           d="m 6521.39,3899.9 v 314.31 h 233.22 c 99.45,0 163.46,-61.71 163.46,-156.62 0,-96.05 -64.03,-157.69 -163.46,-157.69 h -233.22 z m 1312.97,-17.17 h 436.76 v 118.89 h -436.76 v 213.73 h 456.2 v 121.16 h -588.78 v -800.24 h 595.58 v 122.37 h -463 v 224.02 z m 1066.07,453.85 v -123.5 h 259.56 v -676.73 h 133.79 v 676.73 h 259.48 v 123.5 z m 1830.87,-816.26 c 98.4,0 177.2,22.84 237.8,67.46 59.5,44.62 89.2,102.85 89.2,177.2 0,136.05 -93.7,204.65 -321.2,237.78 -133.7,19.43 -192.1,56.04 -192.1,120.02 0,65.19 74.3,112 179.5,112 84.6,0 160.1,-25.1 227.5,-76.61 l 67.5,94.92 c -85.8,66.33 -184.1,99.45 -296.1,99.45 -91.5,0 -165.8,-21.71 -223,-63.98 -58.3,-42.35 -86.9,-97.19 -86.9,-164.65 0,-140.59 91.6,-211.45 309.8,-242.39 138.3,-18.22 200.1,-54.83 200.1,-119.94 0,-72.08 -76.6,-118.9 -192.1,-118.9 -99.4,0 -200,34.26 -267.5,90.31 l -69.7,-100.59 c 97.2,-74.34 210.3,-112.08 337.2,-112.08 z m 907.2,816.26 v -123.5 h 259.6 v -676.73 h 133.7 v 676.73 h 259.5 v 123.5 h -652.8 z m 1637.7,-693.97 c -83.5,0 -149.8,27.45 -201.2,81.22 -51.5,53.7 -76.6,124.57 -76.6,212.6 0,88.03 25.1,158.9 76.6,212.67 51.4,53.7 117.7,81.15 201.2,81.15 82.3,0 148.6,-27.45 200,-81.15 51.5,-53.77 76.6,-124.64 76.6,-212.67 0,-88.03 -25.1,-158.9 -76.6,-212.6 -51.4,-53.77 -117.7,-81.22 -200,-81.22 z m 0,-123.43 c 122.3,0 221.7,38.88 298.3,115.49 75.5,76.54 113.3,177.2 113.3,301.76 0,124.63 -37.8,225.22 -113.3,301.83 -76.6,76.62 -175.9,115.49 -298.3,115.49 -123.5,0 -223,-37.74 -298.4,-114.35 -76.6,-76.61 -114.3,-178.34 -114.3,-302.97 0,-124.56 37.7,-225.22 114.3,-301.76 75.4,-76.61 174.9,-115.49 298.4,-115.49 z m 1607.9,553.31 c 0,-88.04 -57.1,-140.6 -152,-140.6 h -241.2 v 281.19 h 241.2 c 94.9,0 152,-53.7 152,-140.59 z m 169.2,-536.14 -243.5,281.19 c 128,27.45 206.9,122.37 206.9,254.95 0,78.88 -26.3,142.94 -77.7,192.09 -51.5,48.03 -120,72 -205.8,72 h -375 v -800.23 h 133.7 v 273.25 h 162.4 l 232,-273.25 h 167 z m 783.7,346.38 h 436.7 v 118.89 H 15837 v 213.73 h 456.1 v 121.16 h -588.7 v -800.24 h 595.6 v 122.37 h -463 v 224.02 z m -9448.21,453.85 v -800.23 h 133.72 v 242.39 h 238.97 c 88.01,0 157.75,25.11 210.33,76.54 52.61,51.43 78.9,118.89 78.9,202.38 0,83.42 -26.29,150.88 -78.9,202.39 -52.58,51.35 -122.32,76.53 -210.33,76.53 h -372.69 v 0" /></g><g
         transform="scale(1.53295)"
         id="g26"><path
           id="path28"
           style="fill:#8ba542;fill-opacity:1;fill-rule:evenodd;stroke:none"
           d="m 6922.74,8693.32 c -440.71,170.65 -883.94,427.08 -1113.3,854.88 -566.62,1056.9 -729.99,2330.2 -355.8,3569.2 258.35,855.6 738.88,1582.7 1359.12,2137 557.42,498.2 1227.83,857.4 1951.53,1045.6 -524.35,-548.8 -767.08,-1167.4 -837.73,-1820.8 -80.17,-741.5 62.88,-1524.2 265.5,-2298.8 155.71,-595.3 289.38,-1167.4 177.37,-1734.8 -108.55,-550.42 -450.7,-1106.53 -1233.05,-1694.22 l -14.35,13.5 c -757.64,716.85 -1030.79,1784.32 -976.75,2830.12 54.28,1050.2 437.33,2075.2 991.17,2702.9 21.91,24.9 42.2,47.1 60.79,66.8 36.14,38.2 34.51,98.5 -3.71,134.7 -38.23,36.1 -98.51,34.5 -134.71,-3.8 -23.81,-25.2 -45.6,-49 -65.24,-71.2 -581.12,-658.6 -982.69,-1727.9 -1039.11,-2819.6 -54.99,-1064.4 217,-2153.4 968.27,-2911.48 v 0" /></g><g
         transform="scale(1.39835)"
         id="g30"><path
           id="path32"
           style="fill:#4bb7c3;fill-opacity:1;fill-rule:evenodd;stroke:none"
           d="m 11878.9,15112.3 c -32.9,-47.6 -98.1,-59.6 -145.6,-26.7 -47.6,32.8 -59.6,98 -26.7,145.6 61.4,88.8 152.3,147.2 251.4,169.4 98.4,22.1 205,8.7 299.2,-45.7 h 0.4 c 94.3,-54.4 159.2,-140.2 189.3,-236.5 30.3,-97 25.3,-204.8 -20.9,-302.3 -24.7,-52.3 -87.2,-74.7 -139.5,-50 -52.3,24.6 -74.7,87.1 -50.1,139.4 23,48.4 25.5,102.1 10.4,150.5 -14.9,47.9 -47.3,90.5 -94.2,117.6 l 0.1,0.2 c -46.8,26.9 -99.8,33.5 -148.8,22.5 -49.4,-11 -94.7,-40.1 -125,-84.1 z m -65.6,-1811.2 c 867.6,-331 1387.4,-1460.5 1069,-2506.9 -43.2,-141.9 -67.6,-273.1 -74.8,-393.8 -16.8,-281.8 62,-505.72 213.1,-679.21 155.5,-178.57 388.7,-307.72 674.4,-394.75 226.8,-69.01 486.5,-111.42 767.6,-130.73 612.8,589.91 1087.6,1340.69 1351.3,2213.09 l 0.3,1.1 c 15.3,50.9 29.8,101.8 43.5,152.8 -7.6,-14.6 -15.3,-29.1 -23.1,-43.5 -349.6,-644.6 -869.6,-972 -1349,-1035.9 -205.1,-27.2 -403.1,-6.6 -578.1,58 -178.2,65.7 -332.8,176.5 -447.6,328.2 -212.8,281.1 -286.6,699.4 -114.6,1224.7 99,302.7 306.2,602.3 518.4,908.9 427.9,618.3 877.3,1267.7 371.4,1946.5 -34.7,46.4 -25.2,112.1 21.3,146.8 46.4,34.7 112.1,25.1 146.8,-21.3 595.9,-799.2 102.5,-1512.2 -367.2,-2191 -203.2,-293.6 -401.7,-580.4 -491.4,-854.8 -148.1,-452.4 -91.1,-804 82.6,-1033.6 89.9,-118.6 211.6,-205.7 352.4,-257.6 144.1,-53.1 308.1,-70.1 479,-47.3 419,55.8 877.1,348.9 1191.5,928.4 175,322.8 293.4,705.2 344.4,1100.5 23.4,181.5 32.8,365.5 27,547.7 -15.6,214.4 -44.7,426.6 -86.6,635.4 -14.2,56.6 -29.8,112.8 -46.8,168.6 -220.6,723.5 -671.4,1334.8 -1289.7,1711.1 -618,376 -1405.4,517.5 -2300,301.8 -78.3,-18.9 -156.6,-40.2 -234.8,-64.1 -476.6,-145.3 -643,-407 -779.9,-622.2 -103.1,-162.1 -183.7,-384.2 -630.2,-601.5 -194.4,-83.2 -432.3,-179.8 -647,-265.4 -532.03,-212.1 -637.58,-196.5 -424.26,-783.2 105.12,-288.8 271.46,-607.2 521.06,-847 189.2,-181.7 427.6,-318.4 725.1,-361.8 622.8,-88.5 886.6,179.6 984.8,761.9 l 0.1,0.1" /></g><g
         transform="scale(1.22267)"
         id="g34"><path
           id="path36"
           style="fill:#999999;fill-opacity:1;fill-rule:evenodd;stroke:none"
           d="m 11653.5,8927.6 c 1261.7,-176.9 2512.3,66.74 3585.1,641.88 378.3,202.83 734.6,447.02 1061.4,728.52 -253.4,28.2 -491.1,74 -706.6,139.6 -369.7,112.5 -674.5,283.4 -883,522.8 -213.6,245.2 -325.2,558.1 -301.9,948.5 9.3,155.6 40.5,324 95.8,505.7 120.8,397 121.3,875.2 -10.3,1323.1 -98.5,334.5 -270.9,651 -522.3,902.2 -51.6,-223.5 -157.8,-385.7 -295.8,-504.4 -177.6,-153.1 -403.4,-228.5 -629.3,-268.9 l -138.3,-24.6 c -370.4,-64.4 -459.4,-79.9 -886.2,-349.3 l -25.3,-16 -29.5,-2.3 c -0.8,0 -264.6,-21.5 -496.7,51.1 -56.7,17.7 -104.7,9.7 -143.9,-36.7 -62.9,-74.4 -116.2,-220.2 -161.3,-460.7 -35.3,-188.4 -35.4,-346.8 3.2,-478.3 36.5,-124.4 109.7,-227.7 222.9,-313.4 121.5,-91.8 236.4,-164.2 341.1,-230.2 456.7,-287.6 742.8,-467.8 580.5,-1323.3 -91.7,-483.6 -363,-1441.47 -659.6,-1755.3 z m 889.6,4549.7 c 121.3,0 219.6,-98.3 219.6,-219.6 0,-121.3 -98.3,-219.6 -219.6,-219.6 -121.3,0 -219.6,98.3 -219.6,219.6 0,121.3 98.3,219.6 219.6,219.6" /></g><g
         transform="scale(1.55502)"
         id="g38"><path
           id="path40"
           style="fill:#333333;fill-opacity:1;fill-rule:evenodd;stroke:none"
           d="m 10529.7,13533.7 c -29.6,-42.8 -88.1,-53.5 -130.9,-24 -42.8,29.5 -53.5,88.1 -24,130.9 55.2,79.9 136.9,132.4 226.1,152.4 88.4,19.8 184.4,7.8 269.1,-41.1 h 0.4 c 84.7,-49 143.1,-126.1 170.2,-212.7 27.2,-87.2 22.6,-184.2 -18.9,-271.8 -22.2,-47.1 -78.4,-67.2 -125.4,-45 -47,22.2 -67.2,78.3 -45,125.3 20.7,43.6 22.9,91.9 9.3,135.4 -13.5,43 -42.5,81.4 -84.7,105.7 l 0.1,0.2 c -42.2,24.2 -89.8,30.2 -133.8,20.3 -44.4,-10 -85.1,-36.1 -112.5,-75.7 z m 454.4,2427.7 c -40.1,11 -69.6,47.6 -69.6,91.1 0,64.4 62,108.4 121.8,90.4 1270.8,-383.8 2265.9,-1246.7 2847.5,-2331.5 223.1,-416.2 385.2,-864.9 478.7,-1331.8 l 3.5,-14.4 c 44.4,-183.8 69.4,-375.6 76.5,-569.6 42.4,-568.4 -16.3,-1153.8 -189.1,-1732.1 l -4,-13.8 c -250.7,-829.87 -705.7,-1542.14 -1293.3,-2098.54 -1.9,-1.92 -3.8,-3.73 -5.8,-5.46 C 12639.6,7752.45 12292,7502.74 11917.9,7302.17 10837.2,6722.82 9536.42,6554.2 8270,6932.59 l -13.82,4.05 C 6985.45,7320.37 5990.29,8183.31 5408.67,9268.13 4827.19,10352.7 4659.38,11659 5043.14,12929.8 c 264.81,876.9 758.11,1622.9 1395.18,2192.3 728.74,651.3 1620.95,1062 2590.45,1177.9 -522.76,-543.9 -1061.98,-1013.6 -1179.73,-2102.3 -76.07,-703.6 61.74,-1454.1 256.66,-2199 159.29,-609 295.81,-1195.4 177.81,-1793.6 C 8164.92,9604.33 7791.87,9002.15 6932.72,8373.54 l -61.16,-44.7 -56.91,50.29 c -23.47,20.71 -48.55,43.73 -75.11,68.81 -791.79,749.25 -1077.77,1855.56 -1021.92,2936.06 55.61,1076.2 451.49,2130.4 1024.36,2779.6 19.36,22 40.84,45.4 64.31,70.3 35.69,37.6 95.11,39.3 132.8,3.6 37.68,-35.6 39.29,-95.1 3.66,-132.7 -18.33,-19.4 -38.33,-41.4 -59.93,-65.8 -545.98,-618.8 -923.62,-1629.3 -977.1,-2664.6 -53.28,-1031 216.01,-2083.25 962.88,-2789.99 l 14.15,-13.25 c 771.25,579.35 1108.48,1127.57 1215.55,1670.14 110.42,559.4 -21.35,1123.4 -174.85,1710.1 -199.81,763.7 -340.77,1535.3 -261.74,2266.2 69.65,644.1 308.94,1254 825.85,1795 C 7774.13,15827.1 7113.23,15473 6563.72,14981.9 5952.28,14435.4 5478.58,13718.6 5223.89,12875.2 4855.02,11653.7 5016.07,10398.5 5574.64,9356.61 6133.05,8315.08 7089.05,7486.48 8310.32,7117.54 l 0.45,-0.13 c 1221.47,-368.87 2476.73,-207.78 3518.53,350.8 297.5,159.48 577.6,351.44 834.6,572.79 -199.2,22.12 -386.1,58.2 -555.5,109.78 -290.8,88.42 -530.4,222.76 -694.4,411.05 -167.9,192.8 -255.7,438.78 -237.3,745.78 7.3,122.31 31.8,254.73 75.3,397.62 94.9,312.07 95.4,688.07 -8.1,1040.27 -77.5,263 -213,511.9 -410.6,709.4 -40.6,-175.7 -124.2,-303.3 -232.6,-396.6 -139.7,-120.4 -317.2,-179.6 -494.8,-211.4 l -108.78,-19.4 c -291.25,-50.6 -361.22,-62.7 -696.78,-274.6 l -19.93,-12.6 -23.22,-1.8 c -0.58,0 -208.1,-16.8 -390.47,40.2 -44.63,13.9 -82.38,7.6 -113.19,-28.9 -49.45,-58.4 -91.38,-173.1 -126.81,-362.1 -27.78,-148.2 -27.85,-272.76 2.51,-376.24 28.61,-97.74 86.23,-179.03 175.24,-246.3 95.56,-72.28 185.91,-129.13 268.22,-181.02 424.82,-267.59 661.86,-416.97 349.58,-1467.12 -14.66,-49.91 -67.01,-78.46 -116.91,-63.8 -49.9,14.66 -78.52,67.01 -63.86,116.91 271.83,913.95 78.07,1035.94 -269.06,1254.65 -86.88,54.73 -182.19,114.73 -281.54,189.9 -122.12,92.29 -201.86,205.92 -242.44,344.37 -38.91,132.8 -40.13,286.05 -6.88,463.25 41.8,223 97.74,366 168.1,449.2 88.87,105.2 192.86,124.6 313.11,87.1 115.63,-36.1 246.88,-35.3 298.2,-33.3 349.64,219.5 429.83,233.4 744.43,288.1 l 107.28,18.6 c 148.9,26.6 295.4,74.4 404.8,168.6 106.3,91.5 180.8,231.4 192.7,446.5 l 10,180.9 142.3,-111.9 c 300.7,-236.4 498.7,-566.1 602.1,-917.6 113.7,-386.9 112.7,-801.83 7.4,-1147.93 -38.8,-127.59 -60.7,-245.53 -67.2,-354.08 -15.2,-253.51 55.7,-454.79 191.6,-610.8 139.9,-160.58 349.5,-276.72 606.5,-354.98 203.9,-62.06 437.5,-100.19 690.2,-117.55 551.1,530.47 978.1,1205.51 1215.2,1990.14 l 0.2,1 c 13.8,45.7 26.8,91.5 39.2,137.4 -6.8,-13.2 -13.8,-26.2 -20.8,-39.1 -314.4,-579.75 -782,-874.15 -1213.1,-931.58 -184.4,-24.57 -362.5,-5.92 -519.9,52.15 -160.3,59.1 -299.2,158.71 -402.5,295.11 -191.3,252.86 -257.6,628.82 -103,1101.32 89,272.2 275.4,541.6 466.2,817.3 384.7,556 788.9,1140.1 333.9,1750.4 -31.2,41.8 -22.6,100.9 19.2,132 41.7,31.2 100.8,22.6 132,-19.1 535.8,-718.8 92.2,-1360 -330.2,-1970.3 -182.7,-264 -361.2,-521.9 -441.9,-768.7 -133.1,-406.8 -81.9,-722.9 74.3,-929.41 80.9,-106.69 190.3,-184.95 316.9,-231.64 129.6,-47.78 277.1,-62.96 430.7,-42.51 376.8,50.16 788.8,313.7 1071.5,834.86 157.4,290.1 263.8,634.1 309.7,989.6 21,163.2 29.5,328.7 24.2,492.5 -14,192.9 -40.1,383.7 -77.9,571.4 -12.7,50.9 -26.7,101.4 -42,151.6 -198.4,650.6 -603.7,1200.3 -1159.8,1538.7 -555.7,338.1 -1263.8,465.4 -2068.3,271.4 -70.4,-17 -140.7,-36.2 -211.1,-57.6 -428.6,-130.7 -578.2,-366 -701.25,-559.5 -83.86,-131.9 -157.1,-247.1 -291.57,-318.3 -74.79,-39.6 -196.08,-94.4 -337.3,-154.8 -174.79,-74.8 -388.81,-161.7 -581.86,-238.7 -244.11,-97.3 -379.93,-158 -420.12,-245.8 -41.41,-90.3 -2.57,-242.2 100.77,-526.3 94.47,-259.7 244.11,-546.1 468.55,-761.6 170.16,-163.4 384.5,-286.4 652.02,-325.4 51.51,-7.4 87.33,-55.1 80.06,-106.6 -7.33,-51.6 -55.11,-87.3 -106.62,-80 -311.06,45.3 -559.48,187.5 -756.01,376.2 -248.42,238.6 -412.41,551.1 -515.04,833.3 -121.22,333.3 -162.7,520.8 -94.85,668.6 69.06,150.5 232.15,226.9 521.92,342.4 185.27,73.9 394.98,159.1 577.42,237.2 136.59,58.5 253.05,111 323.28,148.2 89.51,47.4 150.41,143.1 220.06,252.6 139.74,219.8 309.74,487.2 805.94,638.5 75.3,22.9 149.1,43.1 221.4,60.5 857.2,206.7 1614.2,69.4 2210.7,-293.5 226.7,-137.9 430,-308.5 606.4,-505.1 -562.9,1008.4 -1502.6,1808.3 -2695.7,2169.2 z M 9709.99,10540.8 c 95.36,0 172.66,-77.3 172.66,-172.6 0,-95.4 -77.3,-172.7 -172.66,-172.7 -95.37,0 -172.67,77.3 -172.67,172.7 0,95.3 77.3,172.6 172.67,172.6" /></g></g></g></svg>